<svg width="217" height="112" viewBox="0 0 217 112" fill="none" xmlns="http://www.w3.org/2000/svg">
<path d="M162.217 77.3051C162.503 76.8493 162.789 76.3936 163.075 75.8808C164.733 72.8614 163.361 70.2408 159.931 69.8989C158.387 69.728 156.843 69.728 155.3 69.6711C154.213 68.8735 153.813 67.6771 153.299 66.4807C151.812 62.9486 150.497 59.3594 150.268 55.4285C150.44 54.346 150.897 53.2636 150.726 52.1242C150.669 51.6115 150.783 51.0987 151.412 51.0418C152.041 50.9848 152.212 51.4975 152.384 52.0103C152.67 53.0357 152.841 54.0612 152.898 55.0866C153.013 56.397 153.356 57.5364 154.899 57.8782C155.814 58.1061 156.443 58.8467 157.129 59.4734C161.817 63.4043 167.192 65.0565 173.252 64.9425C178.169 64.8286 182.342 62.9486 186.402 60.157C191.147 56.9097 192.862 51.8393 195.263 47.2247C196.407 44.9459 195.664 41.9835 195.492 39.3628C195.492 38.9071 195.149 38.6222 194.806 38.3374C193.377 37.3119 193.72 36.5713 195.149 36.0016C196.464 35.8876 197.779 35.7167 199.037 35.3179C200.638 34.8622 202.01 35.261 203.153 36.6283C204.354 37.9956 205.154 39.6477 206.584 40.8441C207.098 41.2998 207.441 41.9835 208.299 41.8695C210.757 45.6296 210.986 49.9023 210.471 54.1751C209.728 60.157 206.641 64.9995 202.982 69.6141C197.836 76.1087 191.49 80.7803 183.429 83.0591C179.884 84.0846 176.396 83.9706 172.909 82.6603C169.707 81.4069 166.734 79.6409 163.532 78.3875C163.075 78.2736 162.503 77.9318 162.217 77.3051Z" fill="#8BAF1E"/>
<path d="M101.271 55.0297C98.813 55.2576 96.9835 56.7957 94.9824 57.9352C94.4679 57.5933 94.0677 57.7642 93.6675 58.163C92.9242 59.0176 92.0666 59.4734 90.866 58.9606C90.2943 58.7327 89.7225 58.9037 89.3795 59.4164C88.5791 60.5558 87.4356 60.4988 86.235 60.6697C80.2319 61.6382 75.1435 59.1885 70.2267 56.34C69.998 56.226 69.7121 56.0551 69.5406 55.8842C67.4824 53.9472 65.4813 51.9533 62.4512 51.6684C64.4522 50.8139 66.5104 51.4975 68.5686 51.2696C69.4834 51.1557 70.3982 51.2127 71.2558 51.1557C72.1705 50.9278 72.9138 49.2757 73.8857 49.1617C73.8857 49.1617 80.918 53.8903 85.4918 53.2066C87.3213 52.9218 88.865 52.0672 90.1799 50.9848C92.6955 48.9908 95.2683 46.8829 96.6976 43.9774C97.9554 41.4707 97.6696 38.6222 97.2122 35.9446C96.2402 30.6464 93.1529 26.8294 88.0074 24.8354C87.1498 24.4936 86.235 24.4936 85.3203 24.3796C83.3764 24.2087 81.4325 24.8354 79.4886 23.9808C78.6882 23.639 78.288 24.4936 77.7735 24.8924C75.8868 26.2597 74.4003 28.3676 71.656 28.0827C71.1986 27.1712 71.7131 26.4306 72.1705 25.633C73.9429 23.4111 74.8005 20.7905 75.4865 18.1129C75.7152 17.1444 75.7152 16.005 76.7443 15.3783C77.945 16.2329 78.8026 16.2899 79.3171 14.6377C79.7173 13.3274 80.5177 13.4983 80.918 14.5807C81.3182 15.5492 81.8327 15.4353 82.6903 15.4353C84.7485 15.4353 86.9211 14.5807 88.6363 16.4608C88.7506 16.5747 88.865 16.5747 89.0365 16.5747C93.6103 15.6062 95.6113 19.4232 98.47 21.5881C99.8993 22.6705 101.214 23.9808 102.529 25.1772C103.044 25.69 103.616 25.633 104.244 25.4621C105.617 26.3166 105.902 27.8548 106.303 29.2221C108.075 34.4634 108.532 39.7616 106.874 45.1738C106.303 46.0853 106.417 47.3957 105.216 47.9084C104.416 47.4526 104.416 46.769 104.416 45.9714C103.101 48.9338 101.1 51.5545 101.271 55.0297Z" fill="#F0A730"/>
<path d="M71.7131 28.1397C74.2859 27.1142 76.63 25.7469 78.3452 23.5251C78.6311 23.1833 79.1456 22.9554 79.4886 23.2972C81.261 24.8924 83.3764 23.8669 85.3203 23.9239C89.3223 24.0948 94.5251 27.6839 96.2974 31.33C98.0698 35.0331 98.1841 38.8501 97.8983 42.7241C97.7267 44.889 96.1259 46.4272 94.7538 47.7944C92.6955 49.9023 90.6373 52.1242 87.7787 53.2636C87.4356 53.3775 87.1498 53.7194 86.8639 53.7763C83.0905 53.8333 79.1456 54.6878 75.8868 51.8393C75.0863 51.1557 73.3712 51.7824 73.4283 50.0163C72.342 50.2442 73.8857 48.9338 74.2287 48.3072C74.2859 48.1932 74.4003 48.0223 74.4574 47.9084C76.9159 45.6296 77.1446 45.5726 80.0032 47.5096C82.8047 49.3896 89.0937 47.6235 90.5801 44.4902C90.8088 44.0344 90.866 43.5217 91.0947 43.1229C93.4388 39.8186 92.9814 36.7422 90.9804 33.4379C89.0365 30.1906 84.6914 28.1397 81.0895 29.507C78.9169 30.3046 76.8015 31.2731 75.4294 33.324C75.0292 33.8937 74.5146 34.4064 73.8857 34.7482C73.1425 35.204 73.0853 35.7167 73.2568 36.5143C74.0001 39.6477 73.5998 40.0465 70.2267 39.5337C69.998 39.1919 70.1695 38.9071 70.341 38.5652C72.5136 35.261 72.0562 33.7228 68.5115 32.2415C69.1975 30.5324 69.7693 28.8233 71.7131 28.1397Z" fill="#EFBC2E"/>
<path d="M101.271 55.0297C99.3275 52.8078 101.672 51.0987 102.186 49.2757C102.529 48.0223 103.215 46.712 104.359 45.5726C104.759 46.3132 105.102 46.9969 105.045 47.8514C105.502 48.3641 105.216 48.8199 104.988 49.2757C104.587 49.9023 103.787 50.1872 103.616 50.9848C103.558 51.1557 103.558 51.4405 103.844 51.3836C104.016 51.3266 104.13 51.1557 104.244 50.9278C105.159 49.2757 106.303 47.7944 106.76 45.9144C110.476 35.6028 108.532 26.5445 100.643 18.8535C99.2704 17.4862 97.498 16.7456 96.0115 15.6062C93.9533 14.125 91.4377 13.8401 89.1508 13.0425C88.8078 12.9856 88.5219 12.7577 88.1789 12.7007C87.893 12.6438 87.7215 12.7007 88.0074 12.7007C88.2932 12.7007 87.9502 12.9856 88.1789 12.7577C90.4086 13.5553 92.5812 14.4668 94.5822 15.6632C97.9554 17.4293 100.299 20.2778 102.644 23.1263C103.272 23.8669 103.844 24.7215 103.73 25.7469C103.616 26.0887 103.844 27.0572 103.044 26.3736C101.214 24.7784 99.3276 23.2972 97.6124 21.5311C95.8972 19.765 93.6674 18.5117 91.6664 16.9735C90.4086 15.948 88.8078 18.6256 87.3213 16.2899C86.6352 15.2074 84.1196 16.005 82.4616 16.005C81.8899 16.005 81.3181 16.4038 80.8036 16.6317C80.1175 15.8911 80.8036 14.8656 79.8888 14.068C79.4886 15.2644 79.4315 16.6886 77.7734 16.8596C76.5156 17.0305 77.4304 15.6062 76.63 15.4923C75.7724 13.5553 75.4865 11.6183 77.1445 9.90918C86.1207 7.97219 94.182 10.0801 101.329 15.6632C102.529 16.5747 103.787 17.4862 104.702 18.7396C106.245 20.7335 107.903 22.6136 108.99 24.8924C109.504 25.7469 109.733 26.7154 110.19 27.57C110.305 27.7409 110.362 27.9688 110.419 28.1397C111.334 30.2476 111.963 32.4125 112.134 34.6913C112.134 39.3628 112.592 44.0344 110.648 48.5351C110.019 50.0733 109.447 51.6684 108.475 53.0357C107.675 54.1751 107.217 55.5994 105.845 56.2261C104.587 55.5424 102.987 55.0866 101.271 55.0297Z" fill="#F18934"/>
<path d="M62.4512 51.6684C64.7381 51.4975 66.3961 52.1242 68.2256 53.9472C71.4844 57.2515 75.8867 59.1885 80.3462 60.157C82.576 60.6128 85.2059 60.157 87.6071 60.0431C88.1789 60.0431 88.5219 59.7012 88.7506 59.2455C89.3223 58.0491 90.0084 57.4224 91.3234 58.5049C92.0094 59.0746 92.4668 58.6758 92.9242 57.8782C93.3816 57.0806 94.2964 56.1691 94.9253 57.8782C93.0386 60.1 93.1529 62.7776 93.0957 65.3983C91.2662 67.4492 88.6363 67.4492 86.2922 67.6201C76.63 68.4177 68.2828 65.5692 61.5364 58.5049C60.736 57.6503 59.8784 56.7958 59.4782 55.6563C60.6216 54.46 61.0218 52.6939 62.4512 51.6684Z" fill="#F29332"/>
<path d="M119.052 48.0223C119.052 48.5351 119.052 49.0478 119.052 49.5605C117.28 49.2757 116.365 48.3642 116.765 46.4841C117.051 45.1168 116.651 43.6356 117.566 42.2683C118.137 41.3568 116.937 40.7301 116.537 39.9895C115.908 38.8501 115.393 37.7677 117.28 37.3689C117.737 37.7107 117.794 38.2804 118.252 39.078C118.195 37.9956 117.566 37.7677 117.223 37.3119C119.224 35.9446 119.624 33.324 121.568 31.8997C121.796 31.7288 121.968 31.444 121.796 31.1591C120.596 29.2791 121.911 29.0512 123.283 28.9373C122.139 28.4245 120.653 29.3361 119.795 27.9688C120.196 27.2851 120.71 26.7154 121.11 26.0888C121.282 25.9748 121.453 25.9748 121.682 25.9748C123.169 27.7409 125.055 27.2851 126.942 26.9433C127.742 26.7724 128.6 26.5445 129.4 26.4306C131.573 25.8609 133.803 25.576 134.889 23.1263C135.232 22.3857 136.375 22.6136 137.176 22.4427C137.576 22.4996 137.976 22.6705 138.434 22.6705C139.12 22.6705 139.691 22.9554 139.92 23.639C140.206 24.4936 139.52 24.7215 138.948 25.0063C137.805 25.7469 137.233 27.0003 136.261 27.9688C136.032 28.1397 135.804 28.4815 135.918 28.7094C137.062 30.6464 135.804 33.0391 137.119 34.8622C136.718 37.2549 130.601 42.6671 128.257 42.7241C128.2 43.4077 129.172 43.8065 128.714 44.6041C126.885 45.1168 124.998 44.9459 123.111 45.0029C122.025 45.0599 121.225 45.4017 120.196 45.9144C119.338 46.3702 118.766 46.9399 119.052 48.0223Z" fill="#D9511F"/>
<path d="M70.2838 39.5337C73.657 39.5337 73.8285 39.2489 72.5135 36.2295C72.1705 35.4319 72.1705 34.8052 73.0281 34.5773C74.1144 34.2355 74.6289 33.324 75.315 32.5834C79.2028 28.3676 85.4346 26.4875 90.2371 31.444C91.8951 33.0961 92.7527 35.6028 93.5531 37.8816C94.0677 39.3628 92.6383 40.7301 92.2381 42.1544C91.3234 45.2308 89.551 47.5096 86.3494 48.3072C83.7194 48.9908 81.0895 49.6175 78.7454 47.2247C77.2017 45.6296 75.8296 47.3387 74.4574 47.9654C74.7433 47.5666 74.972 47.1678 75.315 46.769C76.4013 45.4017 76.8587 43.7495 76.1726 42.2683C75.4865 40.8441 74.0572 39.9325 72.2277 39.9895C71.5416 39.9895 70.7984 40.2174 70.2838 39.5337Z" fill="#EECA2D"/>
<path d="M129.572 66.7656C131.287 63.4043 133.574 60.4419 135.575 57.2515C137.576 54.0042 139.863 50.9278 141.521 47.5096C142.493 48.1932 143.351 48.3072 144.037 47.1108C144.494 46.3132 145.58 46.1993 146.038 45.4017C146.152 45.2308 146.266 45.0599 146.381 44.9459C149.182 42.3253 152.041 39.7616 156.272 39.3628C155.528 39.135 154.899 38.9071 154.899 38.0525C154.899 37.2549 155.128 36.5143 155.7 36.0016C156.557 35.204 157.701 34.7482 158.558 33.8937C159.187 33.267 159.416 34.0646 159.588 34.5773C158.73 38.4513 157.186 42.0404 155.071 45.4017C154.728 45.9714 154.328 46.5981 153.985 47.1678C153.127 48.3641 152.498 49.6745 151.469 50.643C150.554 51.4405 151.298 52.466 150.84 53.3206C149.925 53.7763 150.097 52.523 149.468 52.409C145.066 57.7642 140.034 62.3788 133.974 65.6831C132.659 66.4237 131.344 67.7341 129.572 66.7656Z" fill="#8D2F2D"/>
<path d="M119.853 27.8548C121.11 28.5385 122.482 28.0257 123.797 28.1967C124.255 28.2536 124.712 28.4245 124.712 28.8803C124.712 29.45 124.14 29.393 123.74 29.393C123.226 29.45 122.768 29.393 122.254 29.45C122.025 29.507 121.739 29.7349 121.682 29.9058C121.568 30.1336 121.739 30.4755 122.025 30.5324C124.083 31.0452 122.768 31.5579 122.025 32.0706C121.282 32.5834 120.481 33.0961 120.253 34.0646C119.853 35.6598 118.823 36.6852 117.337 37.3689C116.079 37.8816 116.022 38.6792 116.88 39.5907C118.023 40.8441 118.595 41.6986 117.566 43.6926C116.765 45.1738 116.422 48.1932 119.052 49.4466C119.338 50.2442 120.024 50.8139 119.395 51.7824C117.28 54.9727 115.279 58.22 113.278 61.4673C111.277 59.6443 110.362 57.1945 109.104 54.9157C108.761 54.2321 108.532 53.4915 108.132 52.8648C110.305 49.4466 111.563 45.6865 111.848 41.6986C112.02 39.2489 111.906 36.7992 111.906 34.3495C113.049 34.5204 112.706 35.4319 112.82 36.1155C112.935 36.8561 112.877 37.6537 112.82 38.5653C113.392 36.5713 113.964 34.6913 114.478 32.8112C115.05 31.8428 115.679 30.9882 116.365 30.0767C118.023 29.7349 117.566 27.9688 118.309 27.0572C118.995 27.0003 119.509 27.1712 119.853 27.8548Z" fill="#DE3D20"/>
<path d="M159.13 34.4634C159.13 34.4064 159.13 34.2925 159.13 34.2355C159.13 34.1785 159.073 34.1216 159.073 34.0646C158.501 35.147 157.358 35.4319 156.443 36.0016C155.528 36.5143 155.128 37.4258 155.528 38.6222C155.986 38.5653 156.043 37.5968 156.672 37.9386C157.301 38.3374 157.129 38.9071 156.9 39.4198C156.672 39.8756 156.615 40.7301 155.814 40.4453C153.87 39.6477 152.441 41.0719 151.069 41.6986C149.354 42.4962 148.039 44.0914 146.552 45.3447C146.266 45.1168 145.923 45.1168 145.58 45.1738C145.637 45.4017 145.809 45.2878 145.98 45.2878C146.209 45.2878 146.381 45.2308 146.552 45.4017C145.752 46.9399 144.265 47.8514 142.95 48.7629C141.521 49.7884 142.093 47.9084 141.521 47.5096C141.464 44.718 139.52 44.3762 137.347 44.1483C136.947 44.3193 136.547 44.3762 136.261 43.9774C135.975 43.5217 136.09 43.0659 136.547 42.7241C137.69 42.6671 138.777 42.3823 139.348 41.2429C139.92 40.4453 140.32 38.7931 141.349 40.8441C142.722 39.7047 143.179 37.5968 145.123 36.9131C145.523 37.3119 146.038 37.6537 146.324 38.1665C146.552 38.4513 146.724 38.8501 147.124 38.6792C147.696 38.3374 147.982 37.7677 147.638 37.084C146.838 36.3434 145.98 37.8246 145.237 36.9701C145.523 35.3179 146.895 34.6913 148.096 33.9507C149.468 33.1531 150.84 32.3555 151.926 31.1591C152.269 30.6464 152.327 30.0197 152.269 29.393C152.155 28.3106 151.526 28.4245 150.84 28.9373C149.868 29.5639 149.068 29.2791 148.325 28.4815C148.096 27.8548 146.952 27.6269 147.41 26.6585C148.953 25.4051 150.497 26.5445 152.041 26.5445C153.413 27.0572 154.785 27.2851 156.329 26.8863C158.044 26.4875 159.702 26.7154 160.045 28.8233C160.331 30.7033 160.445 32.5264 159.816 34.3494C159.53 34.5773 159.359 34.6343 159.13 34.4634Z" fill="#AD332F"/>
<path d="M58.8493 52.9787C60.736 49.7314 63.1944 49.2187 66.5104 49.2757C66.7963 49.2757 66.7963 49.3326 67.1393 49.3326C68.6258 49.4466 69.8264 49.2757 70.6269 49.1617C72.1705 47.6235 73.1425 46.2562 73.7142 45.2878C74.2287 44.4332 74.5146 43.8065 74.2859 43.2938C74 42.6671 73.1996 42.4392 72.342 42.3253C70.9699 42.2114 69.5406 42.0974 68.1684 42.0974C66.3389 42.1544 66.3389 41.3568 67.1965 40.1604C67.8826 39.1919 68.4543 38.1665 69.1404 37.198C69.5406 36.5713 69.9408 35.9446 69.5406 35.261C69.1404 34.5773 68.4543 34.7482 67.8254 34.8052C63.9376 35.261 59.9927 35.7737 56.105 36.2864C54.9044 36.4573 54.9044 36.5143 55.4761 37.5398C55.5333 37.6537 55.4761 37.8816 55.4189 38.0525C54.7328 40.2744 53.475 41.1289 51.1881 41.0719C50.5592 41.0719 49.9303 41.015 49.3014 40.958C33.8076 40.1035 18.3138 39.2489 2.76288 38.3943C1.84811 38.3374 0.590313 37.9955 0.132931 39.135C-0.381623 40.4453 0.704658 41.1859 1.56225 41.8695C4.47806 44.2053 7.39386 46.4841 10.2525 48.8199C11.2244 49.6175 12.2535 49.9593 13.5113 49.9023C24.2598 49.7314 35.0083 49.6175 45.7567 49.4466C46.5 49.4466 47.2432 49.2187 48.1008 49.7314C47.5291 50.7569 46.9574 51.7254 46.3856 52.6939C43.7557 56.397 41.1257 60.1 38.7817 64.031C36.2661 67.848 33.7505 71.608 31.1777 75.4251C29.0623 78.5584 26.9469 81.6348 24.8315 84.7682C22.2016 88.6422 19.5716 92.5162 17.056 96.4471C15.7982 98.3841 16.2556 99.0108 18.5425 99.0677C21.2868 99.1247 24.0311 99.1247 26.7754 99.1817C27.8045 99.2387 28.7764 99.0677 29.3482 98.0993C33.579 91.5477 37.8097 84.9961 42.0977 78.4445C45.2994 73.9438 48.3867 69.3862 51.131 64.6007" fill="url(#paint0_linear)"/>
<path d="M152.327 31.5009C150.669 33.381 148.096 34.1216 146.323 35.7737C145.923 36.1725 145.58 36.5713 145.18 36.9701C143.922 38.4513 142.379 39.6477 141.807 41.6417C141.693 41.9835 141.635 42.3823 141.178 42.2114C140.949 42.1544 140.778 41.8695 140.721 41.6417C140.606 41.1859 141.178 40.7301 140.549 40.2744C139.749 40.3313 140.378 41.4707 139.634 41.5847C138.72 40.5592 137.976 40.3883 137.633 42.0404C137.576 42.3823 137.462 42.6671 137.119 42.895C136.718 42.952 136.318 43.0659 136.375 43.5786C136.433 44.0914 136.89 44.0914 137.29 44.1483C134.432 44.7181 131.573 44.5471 128.714 44.5471C128.257 43.5786 126.885 42.838 127.8 41.2429C128.714 42.895 129.572 42.2683 130.544 41.2998C131.859 39.9895 133.345 38.8501 134.832 37.7107C135.804 36.9701 136.604 36.1155 136.776 34.8622C137.405 33.267 138.891 32.5834 140.149 31.6718C141.178 30.9312 141.578 32.0137 142.15 32.5264C143.579 32.1846 142.836 31.0452 143.007 30.1906C143.007 29.9627 142.95 29.6209 143.065 29.5639C144.894 29.0512 146.495 27.513 148.61 28.0827C149.182 28.7664 149.868 29.0512 150.726 28.4815C151.469 29.45 151.984 30.4185 152.327 31.5009Z" fill="#C93E2B"/>
<path d="M101.557 57.4794C105.216 57.4794 107.961 60.3279 107.903 63.8601C107.846 67.1644 104.988 69.9559 101.614 69.9559C98.1269 69.9559 95.2683 67.2213 95.2683 63.7461C95.2683 60.214 98.0126 57.4794 101.557 57.4794Z" fill="url(#paint1_linear)"/>
<path d="M162.218 77.3051C164.962 78.5584 167.763 79.6409 170.45 81.0651C175.825 83.9136 181.256 83.9136 186.687 81.5778C197.55 76.9063 205.04 68.9304 209.156 57.9352C211.1 52.6369 210.7 47.2247 208.127 42.0974C207.899 41.9835 207.67 41.7556 207.555 41.5277C205.612 37.4828 202.296 35.0331 198.179 33.4949C196.007 32.6403 193.834 31.9567 191.547 31.5009C190.175 30.9882 188.746 30.8743 187.488 30.0197C186.687 29.1082 185.83 28.1967 187.659 27.456C189.146 29.1651 191.433 28.9373 193.319 29.7918C195.721 30.8173 198.465 31.0452 200.695 32.4125C200.752 32.4694 200.809 32.5834 200.923 32.6403C201.838 33.7228 203.268 34.0076 204.354 34.9192C210.014 39.5338 211.672 45.6296 211.443 52.523C211.329 56.2261 210.185 59.6443 208.356 62.8916C203.611 71.2662 197.264 77.9887 188.403 82.0906C182.114 84.9961 175.882 85.3379 169.593 81.8057C167.42 80.5524 165.019 79.6978 162.732 78.6154C162.046 78.4445 161.188 78.1596 162.218 77.3051Z" fill="#293017"/>
<path d="M216.017 26.0318C216.189 26.7154 216.246 27.3991 216.474 28.0257C217.561 31.7858 217.16 32.4125 213.387 33.1531C209.671 33.8367 206.012 33.6658 202.296 32.8112C201.838 32.6973 201.324 32.7543 200.809 32.7543V32.8112C199.723 32.0706 198.465 31.6718 197.207 31.33C196.635 31.1591 195.949 31.1591 195.664 30.4755C195.778 30.1336 195.778 29.9058 195.492 29.6209C193.034 27.2851 194.063 22.7845 195.721 20.3347C196.235 19.6511 196.978 19.2523 197.836 19.1953C198.179 19.3093 198.408 19.5372 198.579 19.765C199.608 21.9299 200.523 24.0378 200.352 26.5445C200.18 28.5385 203.325 30.4755 205.955 29.9627C208.013 29.5639 210.014 29.6779 212.015 29.7918C212.701 29.9058 213.273 30.2476 213.902 30.5324C215.102 31.1021 215.56 30.6464 215.445 29.393C215.217 28.2536 214.13 26.8863 216.017 26.0318Z" fill="#1E683E"/>
<path d="M71.7132 28.1397C70.6269 29.507 69.5978 30.8743 68.5115 32.2415C64.2235 32.8113 59.8784 33.381 55.5905 33.9507C52.7318 34.3494 52.1601 34.9192 51.8171 37.7107C51.7027 38.3943 51.5884 38.7931 50.8451 38.7362C49.7588 38.5653 48.6154 38.964 47.5863 38.3374C48.1008 37.0271 47.5863 35.7737 47.5863 34.4634C47.5863 33.4949 47.4148 32.5264 47.8721 31.6149C49.7588 29.9627 52.1601 30.7033 54.2755 30.4755C59.4782 30.0197 64.6237 29.6779 68.9689 26.3166C69.8265 25.69 70.8556 25.3481 71.8275 24.9493C72.971 24.4936 73.0281 25.1203 72.6279 25.9748C72.2849 26.7154 71.999 27.456 71.7132 28.1397Z" fill="#436033"/>
<path d="M197.95 19.3663C196.007 20.3347 195.092 22.6705 194.749 24.6645C194.406 26.7154 195.035 28.1967 196.121 29.7349C196.521 30.3046 196.007 30.1906 195.778 30.3046C195.149 30.8743 194.577 30.3615 194.006 30.2476C192.004 29.45 190.061 28.5385 188.002 27.7979C185.887 28.3106 187.316 29.1082 187.831 29.8488C187.831 31.33 187.259 32.0706 185.658 31.387C185.372 31.2161 185.201 30.9882 185.029 30.7034C184.744 30.0767 184.629 29.393 184.686 28.7094C184.801 28.3676 185.144 28.0827 185.201 27.6839C185.487 25.576 185.487 23.5251 185.087 21.4172C184.972 20.8475 184.401 19.936 185.544 19.765C186.459 19.6511 187.373 19.4232 187.888 20.7905C188.46 22.3287 188.517 23.8669 188.517 25.4621C189.775 25.4051 190.175 24.4936 190.804 23.8669C193.948 20.7335 197.322 18.0559 201.838 16.9735C203.611 16.5177 204.868 17.8281 206.412 17.6571C206.698 18.8535 205.783 18.5687 205.211 18.5687C203.954 18.5687 202.753 17.999 201.495 18.3408C200.294 18.6256 199.323 19.7081 197.95 19.3663Z" fill="#29462D"/>
<path d="M48.1008 31.5009C48.158 33.324 47.8149 35.147 48.4438 36.9131C48.6725 37.6537 48.4438 38.1665 47.6434 38.2804C45.4709 27.57 47.7006 17.999 56.9054 11.1056C59.8212 8.94069 63.1372 7.40249 66.5104 5.92126C69.1404 4.78185 72.0562 5.40853 74.7433 4.66791C74.972 4.95276 74.972 5.23761 74.8576 5.52247C70.5697 6.77581 67.368 9.56736 64.5665 12.8716C62.6798 15.0935 61.0218 17.4862 59.5925 19.9929C59.3067 20.5057 59.0208 21.1323 58.2775 21.1893C57.763 21.0754 57.6486 20.7335 57.6486 20.2778C58.7349 17.0305 60.8503 14.4098 62.9657 11.7892C64.2235 10.194 65.4813 8.59886 67.3108 7.00369C59.2495 10.5359 52.4459 14.9226 49.7588 23.5821C49.1299 25.2912 48.7869 27.0572 48.844 28.9373C48.7297 29.8488 48.7869 30.7603 48.1008 31.5009Z" fill="#22421C"/>
<path d="M201.266 18.0559C202.696 17.0874 204.125 18.3408 205.554 18.2268C206.012 18.1699 206.298 18.3408 206.412 17.7711C211.1 18.8535 214.016 21.9869 216.074 26.0888C214.931 27.2282 215.788 28.3676 216.074 29.45C215.56 29.8488 215.159 29.6209 214.759 29.2791C210.471 26.0888 206.069 23.1833 201.953 19.765C201.381 19.3093 200.752 18.9105 201.266 18.0559Z" fill="#54AA49"/>
<path d="M121.968 7.63037C122.425 7.45946 122.768 7.85825 123.111 8.02916C124.941 8.88371 125.799 7.97219 125.799 6.32005C125.799 4.38306 126.599 4.55397 127.971 5.18064C130.429 6.26308 132.488 7.91522 134.489 10.3649C134.66 8.08613 135.003 6.37702 135.918 4.78185C136.89 3.12971 138.148 1.76242 140.206 1.93333C141.578 2.04727 143.179 2.50304 143.408 4.15518C143.636 5.92126 142.15 6.49096 140.835 7.00369C139.234 7.63037 138.491 9.1116 139.12 10.6498C139.177 10.7637 139.463 10.8207 139.691 10.8777C139.863 10.9916 139.92 11.1625 139.92 11.3334C139.749 12.131 138.605 12.3589 138.605 13.2704C138.548 13.6692 138.548 14.011 138.434 14.4098C138.033 15.6062 137.119 16.1759 135.918 16.3468C134.146 16.5747 133.345 15.5492 134.089 13.8971C134.546 12.9286 134.432 12.131 133.746 11.3904C132.373 9.96615 131.116 8.54189 129.4 7.45946C127.514 6.26308 127.056 6.49096 126.828 8.76978C126.77 9.1116 126.828 9.45342 126.542 9.73827C124.598 10.0231 123.054 9.1116 121.453 8.25704C121.396 7.91522 121.682 7.80128 121.968 7.63037Z" fill="#32441F"/>
<path d="M129.572 66.7656C133.231 66.3668 135.975 64.088 138.72 61.9801C142.493 59.0746 146.266 56.1691 148.782 52.0103C148.953 51.7254 149.582 51.4405 149.868 51.5545C150.726 51.8393 150.04 52.8078 150.497 53.3206C151.24 53.8903 150.726 54.6879 150.783 55.3715C151.24 59.7012 152.613 63.6892 154.442 67.6201C154.785 68.3038 155.014 68.9874 155.3 69.728C153.985 70.1838 153.756 68.9874 153.413 68.2468C151.298 63.8601 149.925 59.3025 149.296 54.403C148.21 54.403 147.867 55.2576 147.353 55.8273C142.436 60.8976 136.947 65.2274 130.315 67.791C129.858 67.9619 129.229 68.4747 128.829 67.848C128.6 67.5062 129.172 67.1074 129.572 66.7656Z" fill="#402D23"/>
<path d="M76.1154 4.15518C74.8576 0.224225 74.8576 0.224225 79.0312 0.0533144C83.262 -0.117597 83.262 -0.117597 82.2329 3.9273C81.8327 5.35155 80.6321 7.17461 81.4325 8.20007C82.1757 9.22554 84.3483 8.1431 85.7776 8.76977C85.1487 9.56736 84.234 9.22554 83.4335 9.22554C81.5468 9.16857 79.7173 9.45342 77.8306 9.39645C76.63 7.91522 76.2869 6.09217 76.1154 4.15518Z" fill="#52483E"/>
<path d="M77.6019 9.22554C80.289 8.02916 83.0905 9.39645 85.7776 8.76977C92.524 9.22554 98.4128 11.8462 103.387 16.3468C104.473 17.3153 104.988 17.3723 105.617 16.005C106.36 14.4668 107.675 13.3274 108.99 12.3019C109.39 12.0171 109.904 11.8462 109.676 11.2195C111.162 9.96615 112.477 10.194 113.964 12.0171C113.792 12.4728 113.392 12.5868 112.992 12.7007C109.79 13.1565 108.075 15.3783 106.531 17.885C106.074 18.6256 105.96 19.7081 104.702 19.4802C97.3265 11.5613 88.236 8.7128 77.6019 10.308C77.0302 10.4219 76.5156 10.308 76.1726 9.85221C76.0011 9.56736 75.9439 9.28251 75.9439 8.94068C76.0011 8.54189 76.1154 8.1431 76.5728 7.97219C77.3732 8.02916 77.2017 8.82674 77.6019 9.22554Z" fill="#39261A"/>
<path d="M59.5354 55.7133C61.8794 57.7643 63.7661 60.3279 66.3961 62.037C74.7433 67.5631 83.6622 68.8735 93.1529 65.4552C94.2392 66.8795 92.8099 66.9365 92.0666 67.1644C84.1768 69.5001 76.5728 68.8165 69.1975 65.1134C65.4813 63.2334 62.3368 60.5558 59.6497 57.3085C59.3638 56.8527 58.4491 56.397 59.5354 55.7133Z" fill="#3E2817"/>
<path d="M185.144 27.6839C185.944 28.3106 185.43 28.4815 184.801 28.5954C183.6 29.45 182.571 28.1967 181.37 28.2536C181.027 28.1967 180.741 28.0827 180.398 27.9688C173.824 24.8354 167.363 24.3227 161.017 28.4815C160.559 28.7664 160.102 29.1652 159.473 28.9373C159.016 27.0003 157.586 27.1712 156.214 27.3991C154.671 27.6839 153.184 27.8548 151.755 26.9433C152.498 26.0888 153.527 26.4306 154.499 26.3736C155.185 26.3166 155.928 26.3166 155.928 25.3481C156.1 25.0633 156.329 24.9493 156.615 24.8924C157.186 24.8924 157.529 24.2657 158.101 24.3227C159.073 26.1457 160.388 26.7724 161.874 25.9178C167.134 23.0124 172.451 23.3542 177.94 25.1772C180.398 26.0318 182.8 26.8863 185.144 27.6839Z" fill="#2C311A"/>
<path d="M149.925 10.9346C150.154 10.9346 150.383 10.9916 150.669 10.9916C152.212 11.8462 153.87 11.8462 155.528 11.7892C156.329 11.7892 157.129 11.7892 157.529 12.6438C157.93 13.6123 157.129 14.125 156.557 14.7517C154.385 16.9735 151.583 17.3723 148.725 17.6002C148.153 17.6571 147.581 17.5432 147.238 17.0305C147.124 16.8596 147.124 16.6317 147.181 16.4038C148.896 15.0935 148.896 13.1565 147.238 11.6753C146.838 11.3334 146.381 10.9916 147.295 10.7637C148.21 10.8207 149.068 10.5928 149.925 10.9346Z" fill="#0A722E"/>
<path d="M113.907 12.245C112.706 11.1056 111.391 10.4789 109.733 11.2195C107.789 10.9346 105.902 10.6498 103.959 10.308C106.131 7.23157 113.335 6.14914 121.968 7.5734C121.796 7.74431 121.625 7.85825 121.511 7.97219C120.939 8.54189 120.196 8.42795 119.51 8.37098C116.537 7.63037 113.678 8.54189 110.762 8.82674C109.676 8.94068 108.59 9.22553 107.675 9.28251C107.16 9.33948 107.56 9.79524 107.446 9.51039C107.389 9.45342 107.446 9.39645 107.56 9.39645C109.504 8.88371 111.277 9.62433 113.049 10.1371C113.849 10.8207 115.507 10.8207 114.936 12.5298C114.478 12.8716 114.078 12.9856 113.907 12.245Z" fill="#2B441E"/>
<path d="M148.553 17.2014C148.953 16.6887 149.582 16.8026 150.097 16.8026C152.841 16.9735 154.842 15.4923 156.786 13.8401C157.129 13.5553 157.415 13.2135 157.243 12.7577C157.015 12.245 156.5 12.188 155.986 12.188C154.556 12.188 153.184 12.188 151.812 11.7892C151.298 11.6183 150.897 11.4474 150.669 10.9916C152.212 11.1056 153.756 11.2765 155.242 11.3334C156.786 11.3904 158.273 11.0486 159.816 10.4219C158.616 14.5807 156.1 16.9735 152.041 17.7141C151.412 18.2838 150.611 18.2268 149.868 18.2268C149.239 18.1129 148.553 18.1129 148.553 17.2014Z" fill="#25482F"/>
<path d="M108.132 52.9787C109.619 53.4345 109.447 54.9727 110.076 55.9982C111.219 57.8212 112.191 59.7012 113.278 61.5813C112.534 62.7776 112.191 61.7522 111.906 61.2964C110.762 59.4164 109.676 57.4794 108.532 55.4854C107.618 55.2006 107.503 57.7073 106.188 56.283C106.817 55.2006 107.446 54.0612 108.132 52.9787Z" fill="#4C2C22"/>
<path d="M149.754 17.7141C150.554 17.7141 151.298 17.7141 152.098 17.7141C154.328 19.765 157.129 21.3032 158.273 24.3796C157.701 24.4366 158.215 26.0318 157.072 25.2342C155.643 22.7275 153.699 20.7905 151.298 19.3093C150.611 18.9105 149.754 18.6256 149.754 17.7141Z" fill="#572D25"/>
<path d="M149.925 10.9346C148.896 10.9346 147.867 10.9916 146.838 10.9916C144.494 11.7892 142.093 12.188 139.691 11.3904C139.691 11.2195 139.691 11.1056 139.691 10.9346C143.122 9.51039 146.552 10.0231 149.925 10.9346Z" fill="#25482F"/>
<path d="M75.5437 4.61094C76.1726 5.69337 76.7443 6.71884 76.7443 8.02916C76.63 8.31401 76.5156 8.54189 76.4013 8.82674C74.8576 8.20007 75.3722 6.49096 74.6861 5.40852C74.6861 5.18064 74.7433 4.89579 74.7433 4.66791C74.972 4.66791 75.2578 4.66791 75.5437 4.61094Z" fill="#557638"/>
<path d="M45.5281 80.2106C42.5551 83.6857 40.1538 87.4458 40.1538 92.1743C40.1538 97.4156 43.2411 100.093 48.3867 99.4096C52.7318 98.8399 56.9626 97.9283 60.3358 94.8519C61.6508 99.1247 63.1373 99.9793 67.4824 99.7514C71.1986 99.5235 74.629 98.3271 77.945 96.8459C78.6311 96.5041 79.4315 95.8204 80.0032 97.1307C80.9751 99.2386 82.8618 99.6374 84.9201 99.7514C88.5219 99.9793 91.8951 99.1247 95.2111 97.8714C95.8972 97.5865 96.6405 97.0738 97.3265 97.8144C99.0989 99.7514 101.386 99.8084 103.73 99.7514C107.903 99.6374 111.734 98.2132 115.393 96.4471C116.594 95.8774 117.337 95.6495 118.08 97.0738C118.938 98.7829 120.596 99.4096 122.483 99.5235C124.369 99.6374 126.256 99.2956 128.143 98.9538C131.344 98.2701 134.317 96.9598 137.004 94.9659C138.091 98.555 140.435 100.036 144.322 99.7514C152.441 99.1817 159.13 95.3647 165.305 90.3513C165.534 90.1234 165.591 89.8955 165.362 89.4967C164.504 89.4967 163.475 89.5537 162.503 89.4967C159.816 89.2688 157.472 89.6676 155.242 91.4907C153.756 92.6871 151.812 93.3707 149.925 93.8834C149.125 94.1113 148.496 94.2253 148.782 93.0289C150.497 90.4082 152.384 87.9016 153.699 85.053C156.329 81.7488 158.444 78.1596 160.617 74.6275C161.246 73.545 161.074 72.4056 159.588 72.3487C155.871 72.1777 152.155 72.1777 148.439 72.1208C147.982 72.1208 147.353 72.2917 147.81 72.9753C148.039 73.3172 149.182 73.2032 148.382 74.0008C147.924 74.5135 147.353 74.1147 146.838 73.8299C145.237 72.9753 143.522 72.2347 141.75 72.0068C133.059 70.8105 126.885 75.0263 121.568 81.1791C119.795 82.9451 118.48 84.9961 117.852 87.3319C117.28 89.3258 115.908 90.5222 114.421 91.6616C114.421 91.6616 114.421 91.6616 114.421 91.7186H114.364C112.592 92.5161 111.219 94.2253 108.761 94.1113C109.333 93.2568 109.79 92.5731 110.19 91.8895C110.591 91.1489 110.991 90.4652 111.391 89.7246C111.391 89.7246 111.391 89.7246 111.391 89.6676C114.192 85.5088 117.108 81.4639 119.567 77.1342C122.826 72.5196 125.913 67.791 128.829 62.8916C128.829 62.8916 128.829 62.8916 128.886 62.8346C132.03 58.0491 135.232 53.3206 138.319 48.5351C139.12 47.2817 138.662 46.769 137.233 46.8259C132.488 47.0538 127.742 47.2817 122.94 47.5666C121.796 47.6235 121.168 48.1363 121.168 49.2757C122.025 49.6175 122.654 48.649 123.454 49.1617C120.71 53.7194 117.966 58.22 115.222 62.7776C112.763 66.2528 110.533 69.8989 108.418 73.659C108.418 73.659 108.418 73.659 108.418 73.7159C105.845 77.362 103.501 81.236 101.271 85.11C100.128 86.9331 98.7558 88.6422 97.8411 90.5792C96.4689 93.4277 93.839 93.4277 91.2662 93.8834C92.524 91.8325 93.7246 89.7246 94.9824 87.6737C97.498 83.9136 100.071 80.1536 102.529 76.3936C103.272 75.2541 104.759 74.1147 103.901 72.7474C103.101 71.4371 101.614 72.5765 100.414 72.5196C100.357 72.5196 100.242 72.5196 100.185 72.5196C96.9835 72.9184 93.7818 73.3171 90.5801 73.7159C90.1799 73.7729 89.7226 73.7729 89.551 74.2287C89.4939 74.3426 89.6654 74.6844 89.7226 74.6844C91.4949 74.7414 90.3515 75.596 90.0656 75.9948C88.6363 78.2166 87.1498 80.4384 85.7205 82.6603C83.8909 84.5973 82.6331 86.8761 81.2038 89.0979C79.0884 92.4592 75.7152 93.0859 72.2277 94.1683C72.3992 92.9149 72.9138 92.2883 73.314 91.5476C74.629 89.041 76.63 86.9331 77.6591 84.2554C80.0604 81.35 81.8899 78.0457 83.8909 74.8553C84.8629 73.3171 84.3483 72.4056 82.4044 72.2917C79.0884 72.1777 75.8296 72.1208 72.5136 72.1208C71.7703 72.1208 70.1695 71.9499 71.9418 73.3171C72.0562 73.3741 72.0562 73.7159 71.9418 73.8299C71.7703 74.1717 71.4273 74.3996 71.0843 74.2856C70.684 74.1717 70.341 73.9438 69.9408 73.7159C62.6227 69.671 54.1611 72.1208 48.1008 77.9317L45.5281 80.2106ZM68.3971 79.2421C67.8826 80.2675 67.4252 80.9512 66.6248 82.2615C64.6809 84.8821 63.0801 88.4143 60.2214 90.6931C58.735 91.8325 57.3628 93.1428 55.5333 93.7695C53.7038 94.3962 53.0749 93.9974 52.9605 92.1174C52.7318 88.927 53.7038 86.0785 55.1902 83.3439C55.5333 82.7742 55.8191 82.2615 56.2194 81.5209C57.763 79.1851 60.2214 77.476 63.0229 76.3366C64.052 75.8808 65.1955 75.7099 66.2817 75.7099C67.4824 75.7099 68.9117 75.7669 69.5406 76.7354C70.0551 77.5899 68.7973 78.3875 68.3971 79.2421ZM145.923 77.8178C145.009 79.356 143.979 80.6663 143.065 82.3754C141.521 84.7112 139.92 87.104 138.377 89.4398C136.833 90.864 134.946 92.4592 132.888 93.4846C130.315 94.738 129.343 94.3392 129.343 91.4907C129.343 90.4652 129.343 89.3258 129.572 88.3003C130.029 86.4773 130.773 84.9961 131.573 83.23C132.831 80.8372 135.118 78.6154 137.805 77.1911C140.149 75.9378 142.55 75.2541 145.237 76.1657C146.324 76.5075 146.438 76.9063 145.923 77.8178Z" fill="url(#paint2_linear)"/>
<path d="M150.783 55.4285C150.669 54.7448 150.554 54.0612 150.497 53.3775C150.326 50.6999 151.984 48.8769 153.584 47.0538C155.242 45.8575 156.043 45.9144 156.729 47.7944C158.616 52.9787 162.904 55.2006 167.592 56.9097C169.821 57.7073 172.337 57.2515 174.681 56.9097C179.026 56.2261 182.857 54.46 185.487 50.7569C185.887 50.1872 186.23 49.5605 186.402 48.8769C187.602 44.6611 187.831 40.5022 186.059 36.3434C185.487 34.9761 185.315 33.6088 186.916 32.6973C189.031 32.9252 190.747 34.1216 192.576 35.0331C193.548 35.4889 195.035 35.147 195.435 36.6283C194.977 36.6852 194.577 36.7422 194.406 37.198C194.234 37.8246 194.749 37.8246 195.149 37.8816C196.178 38.0525 196.292 38.7931 196.292 39.5907C196.292 41.9835 196.292 44.3193 196.292 46.712C196.292 48.2502 195.092 49.3326 194.406 50.586C193.72 51.8393 192.976 53.0927 192.405 54.46C190.461 58.8467 186.516 61.1255 182.571 63.3473C177.711 66.0819 172.394 66.1389 167.134 65.0564C163.018 64.2019 159.187 62.4928 156.1 59.4734C155.586 59.0176 155.3 58.3909 154.099 58.5049C153.07 58.6188 152.384 56.9097 152.384 55.5994C152.384 54.1751 152.155 52.8078 151.412 51.4975C151.412 52.8648 151.526 54.1751 150.783 55.4285Z" fill="#9ABE37"/>
<path d="M195.378 36.5713C192.462 35.5458 189.66 34.3495 186.916 32.8113C185.715 32.8113 185.487 32.1276 185.658 31.1591C187.088 31.9567 187.145 30.4185 187.774 29.9058C189.031 30.3046 190.289 30.7034 191.604 31.1591C193.205 34.0646 195.664 34.0646 198.408 33.21C202.01 34.5204 205.04 36.6283 207.155 39.9325C207.613 40.6162 208.127 41.2998 208.07 42.2114C207.727 43.2938 207.384 42.3823 207.098 42.2114C205.211 40.8441 204.125 38.8501 202.696 37.141C201.667 35.8877 200.58 35.6598 199.265 36.1155C198.008 36.3434 196.75 36.6852 195.378 36.5713Z" fill="#A4BF5D"/>
<path d="M76.4585 9.6813C76.8587 9.85221 77.2589 10.0801 77.7163 10.251C76.3441 10.9916 76.973 12.245 76.8587 13.3274C76.8015 14.068 76.8587 14.8086 76.8587 15.5492C75.7152 19.1384 75.2578 23.0124 72.6279 26.0318C72.5707 25.7469 72.5135 25.5191 72.4564 25.2342C71.5988 26.2027 70.0551 25.9178 69.1975 26.8294C66.2817 29.8488 62.2796 29.9627 58.5634 30.6464C55.1331 31.2731 51.5884 31.2731 48.158 31.5579C48.1008 28.6524 47.9293 25.8039 49.4158 23.1263C50.159 24.1518 50.9023 24.5506 52.3888 24.0948C54.5042 23.4681 56.3909 22.9554 57.0769 20.5626C57.1913 20.2778 57.5343 20.0499 57.9345 20.2208C57.9345 20.5626 57.9345 20.9045 58.3347 21.0754C58.5634 21.3032 58.6778 21.5311 58.6206 21.816C58.3347 23.9808 58.3347 23.9808 60.5645 23.8099C62.737 23.696 64.6237 22.8984 66.3961 21.702C68.9688 20.0499 71.1986 17.885 73.7142 16.1759C74.1144 15.8911 74.1715 15.4923 74.2287 15.0935C74.2859 14.6947 74.1716 14.125 74.4574 13.8971C75.7152 12.9856 76.0011 11.7892 75.8296 10.3649C75.7152 10.0231 76.0583 9.79524 76.4585 9.6813Z" fill="#557638"/>
<path d="M96.183 15.1504C104.073 19.3663 108.189 26.1457 109.104 34.8622C109.504 38.7362 108.818 42.6101 107.16 46.2562C106.989 46.5411 106.703 46.826 106.36 46.5981C105.902 46.2562 106.017 45.8005 106.245 45.3447C108.018 38.7362 107.332 32.3555 104.359 26.2597C104.244 26.0318 103.959 25.9178 103.73 25.7469C101.5 21.6451 98.2413 18.5687 94.4679 15.948C94.525 14.7517 94.6966 14.6947 96.183 15.1504Z" fill="#F5F9F0"/>
<path d="M106.36 45.4017C106.474 45.8575 106.188 46.712 107.217 46.2562C106.817 48.1932 105.559 49.6745 104.702 51.3266C103.215 50.643 104.359 49.9024 104.645 49.1617C104.816 48.706 104.988 48.2502 105.102 47.8514C105.502 47.0538 105.902 46.1993 106.36 45.4017Z" fill="#F4CFA5"/>
<path d="M113.907 12.245C114.135 12.5868 114.421 12.6438 114.821 12.5868C117.508 13.2704 120.367 13.2704 122.94 14.4668C123.111 14.9226 122.94 15.3214 122.654 15.6632C121.396 16.1189 120.996 17.6571 119.567 17.942C118.137 17.1444 117.165 17.7141 116.365 18.9675C115.336 20.6196 114.993 22.7275 113.049 23.8099C112.42 24.1518 112.477 24.8354 113.106 25.4051C113.964 26.2027 114.135 27.1142 113.163 27.9118C112.191 28.7094 111.105 29.1652 110.133 27.7979C109.619 27.0003 110.019 25.7469 108.818 25.2912C107.675 23.2402 106.36 21.2463 104.759 19.4802C106.417 18.3408 106.531 16.1759 107.961 14.8656C109.733 13.2704 111.334 11.7322 113.907 12.245Z" fill="#E10506"/>
<path d="M110.133 27.7409C110.991 28.2536 111.848 28.2536 112.706 27.7409C113.621 27.1712 113.907 26.3736 112.877 25.8039C111.448 25.0633 111.562 24.1518 112.592 23.5251C114.593 22.3857 114.879 20.1638 116.136 18.5117C116.708 18.8535 117.451 18.7396 117.909 19.3663C117.623 21.0754 116.365 22.1008 115.107 23.0124C113.335 24.2657 113.335 24.4366 115.107 25.69C115.679 26.1457 116.308 26.2597 117.051 26.3736C117.566 26.4875 118.423 26.3166 118.252 27.3421C118.423 28.7664 118.823 30.3615 116.479 30.3046C114.879 30.4755 114.936 31.6718 114.879 32.8112C114.707 35.3749 113.792 37.6537 112.82 40.5592C111.848 38.1665 112.992 36.1155 111.906 34.4064C111.677 32.1276 110.648 30.0197 110.133 27.7409Z" fill="#E01A0C"/>
<path d="M96.183 15.1505C95.5541 15.2644 94.6394 14.7517 94.525 15.948C92.2953 14.9795 90.0084 14.011 87.7787 12.9856C87.8358 11.9601 88.5219 12.4728 88.9793 12.5298C91.5521 13.0995 94.1248 13.4983 96.183 15.1505Z" fill="#F6D2A5"/>
<path d="M104.645 49.1617C104.816 49.9023 103.73 50.586 104.702 51.3266C104.302 51.7824 104.187 52.9218 103.272 52.2381C102.758 51.8393 102.815 50.8708 103.215 50.3011C103.501 49.8454 104.13 49.5605 104.645 49.1617Z" fill="#F0A730"/>
<path d="M89.0365 12.5868C88.6363 12.7007 88.1217 12.5298 87.8358 13.0425C87.3213 12.9856 86.7496 13.2704 86.235 12.5298C87.2069 12.0741 88.1217 12.0171 89.0365 12.5868Z" fill="#F0A730"/>
<path d="M108.818 25.2342C110.591 25.3481 110.019 26.7154 110.133 27.7409C109.333 27.1142 109.39 26.0318 108.818 25.2342Z" fill="#E01A0C"/>
<path d="M148.553 28.1397C146.724 28.0827 145.409 29.9627 143.465 29.5639C143.465 29.8488 143.465 30.0767 143.465 30.3615C142.264 30.9312 142.607 32.4694 141.75 33.267C141.235 31.8997 140.663 31.387 139.463 32.8112C138.72 33.6658 137.69 34.2355 136.719 34.9761C135.918 33.7797 135.118 32.6403 136.09 31.1591C136.204 30.9882 136.204 30.7033 136.147 30.5894C135.804 29.7918 134.489 29.1082 135.232 28.2536C136.318 27.0572 137.176 25.69 138.377 24.6075C138.72 24.2657 139.749 24.7215 139.463 23.753C139.291 23.0693 138.72 22.8984 138.033 23.2972C137.862 23.3542 137.462 22.9554 137.176 22.7845C136.661 22.2717 136.032 21.759 135.975 20.9614C135.861 19.822 136.09 18.9675 137.519 19.3093C138.319 19.5941 138.834 20.3348 139.463 20.8475C140.663 22.0439 141.921 23.0693 143.065 24.3227C144.265 25.519 145.352 26.7724 147.295 26.4306C147.467 26.6015 147.524 26.7724 147.467 26.9433C147.524 27.513 148.668 27.2851 148.553 28.1397Z" fill="#E2412B"/>
<path d="M121.625 26.1457C121.453 26.1457 121.282 26.1457 121.168 26.0888C119.166 26.4875 117.28 25.8609 115.45 25.2912C114.021 24.8354 113.907 24.0378 115.05 23.0124C116.422 21.816 117.451 20.3348 118.48 18.8535C118.652 18.7396 118.881 18.6826 119.109 18.7966C120.653 20.1638 122.311 21.4742 123.683 22.8414C125.112 24.2657 127.171 23.5821 128.371 25.0063C126.256 26.2027 123.969 26.5445 121.625 26.1457Z" fill="#3A9027"/>
<path d="M118.595 18.9675C117.909 20.7905 116.594 22.1008 115.222 23.3542C114.25 24.2657 114.478 24.6645 115.679 24.9494C117.508 25.3481 119.338 25.7469 121.11 26.1457C121.168 27.1142 121.053 27.9118 119.795 27.9118C119.224 27.7409 118.709 27.627 118.137 27.456C116.822 26.6015 115.05 27.1712 113.792 25.69C112.877 24.6645 112.42 23.696 113.792 23.1263C115.679 22.3287 116.594 20.7905 117.737 19.3093C117.966 18.9675 118.195 18.7396 118.595 18.9675Z" fill="#923817"/>
<path d="M121.625 26.1457C123.855 25.69 126.027 25.2342 128.257 24.8354C128.543 23.696 129.458 23.9808 130.258 23.8669C130.601 23.9239 130.944 23.9808 131.23 24.2087C132.145 25.9748 130.429 26.1457 129.572 26.8863C127.914 27.1712 126.313 27.513 124.655 27.7409C123.283 27.9688 121.968 27.8548 121.625 26.1457Z" fill="#923817"/>
<path d="M129.572 26.8863C130.086 26.0318 131.344 25.633 131.23 24.3796C131.001 23.4111 131.859 23.2972 132.373 22.8984C133.231 22.2717 134.432 21.9869 134.603 20.6766C134.832 19.9929 135.232 19.4232 135.632 18.9105C135.975 18.4547 136.433 18.1129 137.062 18.3978C137.633 18.6256 137.919 19.0814 137.633 19.7081C136.09 19.0814 136.09 20.0499 136.433 21.0184C136.604 21.5881 137.29 21.9299 137.119 22.6705C135.918 22.8414 135.346 23.753 134.546 24.6075C133.402 26.0318 131.401 26.5445 129.572 26.8863Z" fill="#B64120"/>
<path d="M133.46 30.7034C134.317 30.7034 134.603 31.2731 134.603 32.0706C134.603 33.0961 134.146 34.0076 133.231 34.1216C132.316 34.2355 132.202 33.267 132.088 32.4694C131.973 31.444 132.488 30.9312 133.46 30.7034Z" fill="#F4AF15"/>
<path d="M125.227 32.0137C126.142 32.0137 126.599 32.4125 126.599 33.267C126.542 34.2355 125.913 34.9192 125.17 35.0901C124.255 35.261 124.255 34.2925 124.14 33.6658C124.026 32.8113 124.255 32.1276 125.227 32.0137Z" fill="#F5B016"/>
<path d="M117.337 37.4258C117.737 37.4828 118.195 37.4828 118.538 37.7107C119.109 38.0525 119.052 38.6222 118.881 39.1919C118.766 39.5338 118.538 39.8186 118.137 39.7616C117.394 39.6477 117.394 39.021 117.337 38.4513C117.337 38.1095 117.337 37.7677 117.337 37.4258Z" fill="#F39329"/>
<path d="M126.199 42.1544C126.142 42.7241 125.856 43.3508 125.17 43.4077C124.598 43.4647 124.541 42.838 124.484 42.3253C124.484 41.7556 124.541 41.1859 125.284 41.1859C125.913 41.1859 126.199 41.4707 126.199 42.1544Z" fill="#FA9F1D"/>
<path d="M88.6362 38.1095C88.6934 41.5847 85.2059 44.832 81.8899 44.5471C81.4896 44.4902 81.261 44.2623 80.9751 44.0914C79.4886 43.0089 78.4595 41.2998 76.63 40.6732C76.1154 40.5022 75.9439 40.0465 76.2869 39.4768C77.5447 37.4258 78.5738 35.147 80.5177 33.5519C81.0323 33.1531 81.5468 32.5834 82.1757 32.8682C84.4055 33.7797 86.9211 34.1785 88.1789 36.6852C88.4075 37.198 88.6934 37.6537 88.6362 38.1095Z" fill="#ECDC29"/>
<path d="M185.715 31.1591C186.059 31.7858 186.23 32.5264 186.973 32.8112C185.887 34.0076 186.173 35.204 186.745 36.6283C188.631 41.3568 188.688 46.4841 186.116 50.6999C184.515 53.3206 181.942 55.7133 178.169 56.6248C175.081 57.3655 171.937 57.1376 168.907 57.9352C168.678 57.9921 168.335 57.9921 168.106 57.8782C164.276 56.1121 160.159 54.7448 157.644 50.9848C157.243 50.3581 156.958 49.7884 156.729 49.1048C156.272 47.5096 155.585 46.1993 153.527 47.1108C154.042 45.2877 155.414 43.9205 156.214 42.2683C157.415 39.7616 158.33 37.198 159.016 34.5204C159.13 34.5204 159.245 34.5204 159.359 34.4634C159.702 34.0076 159.988 33.4949 160.617 33.21C165.305 30.9882 170.279 29.9058 175.367 29.2791C176.911 29.1082 178.455 28.9942 179.598 27.7409C179.827 27.456 180.227 27.513 180.57 27.7409C180.856 27.7979 181.085 27.7979 181.37 27.8548C182.857 28.5385 184.401 29.1651 185.258 30.7033C185.43 30.8173 185.544 30.9882 185.715 31.1591Z" fill="#A8CA4D"/>
<path d="M151.698 43.0659C151.469 44.1483 151.298 44.9459 150.268 45.1738C149.925 45.2308 149.754 44.832 149.868 44.6041C150.154 43.8635 150.268 42.895 151.126 42.5532C151.469 42.4962 151.755 42.895 151.698 43.0659Z" fill="#AD332F"/>
<path d="M145.352 51.2127C145.637 50.1302 146.038 49.3896 147.01 49.1617C147.295 49.1048 147.638 49.3896 147.467 49.6745C147.124 50.529 146.609 51.2127 145.352 51.2127Z" fill="#D17D32"/>
<path d="M140.778 55.3145C141.006 54.6309 141.407 54.1182 142.15 54.0042C142.207 54.0042 142.493 54.346 142.436 54.403C142.093 55.0866 141.693 55.6563 140.778 55.3145Z" fill="#C57442"/>
<path d="M114.764 32.8682C114.135 31.9567 114.135 31.0452 114.764 30.1906C115.279 29.507 115.85 29.9627 116.365 30.3615C116.308 31.444 115.736 32.2415 114.764 32.8682Z" fill="#F99526"/>
<path d="M116.88 50.2442C116.88 50.7569 116.708 51.2696 116.079 51.2696C115.279 51.2696 115.222 50.6999 115.222 50.1302C115.222 49.5605 115.507 49.2187 116.136 49.2187C116.822 49.2187 116.88 49.7314 116.88 50.2442Z" fill="#EB8423"/>
<path d="M113.106 42.0974C113.792 42.0974 113.964 42.4962 113.964 42.895C113.907 43.4077 114.25 44.1483 113.506 44.3193C112.877 44.4332 112.82 43.7496 112.706 43.2938C112.649 42.838 112.649 42.3253 113.106 42.0974Z" fill="#F59E21"/>
<path d="M180.684 27.7409C178.626 30.5324 175.31 29.6779 172.566 30.1906C167.992 31.0452 163.647 32.4125 159.473 34.4064C159.53 32.5834 159.53 30.7603 159.588 28.9373C166.048 23.9239 172.966 24.0948 180.113 27.1142C180.341 27.2282 180.456 27.513 180.684 27.7409Z" fill="#92B047"/>
<path d="M147.41 26.8863C147.295 26.7154 147.181 26.6015 147.124 26.4306C146.038 25.8039 144.322 26.2597 143.922 24.4936C145.637 24.5506 144.437 23.1833 144.837 22.5566C145.58 21.9869 146.438 21.8729 147.353 21.8729C148.953 21.9299 148.61 21.1893 148.153 20.2208C147.867 19.5941 146.209 19.4232 147.295 18.2268C148.153 17.942 148.953 18.2268 149.64 18.7965C151.812 20.5057 153.927 22.3287 155.871 24.2657C156.1 24.4936 156.272 24.8354 156.272 25.1772C157.015 26.2027 156.786 26.8294 155.471 26.8863C154.271 26.9433 153.07 26.9433 151.869 26.9433C150.383 27.1712 148.896 26.1457 147.41 26.8863Z" fill="#15692A"/>
<path d="M137.119 42.895C137.176 42.4962 137.176 42.0974 137.233 41.6986C137.29 40.958 137.405 40.1034 138.319 39.9895C139.463 39.8756 139.634 40.7301 139.634 41.5847C138.834 42.0974 138.834 44.0344 137.119 42.895Z" fill="#FABE0E"/>
<path d="M152.327 31.5009C151.355 30.7603 150.669 29.8488 150.669 28.5954C150.783 27.6839 151.412 27.6839 152.098 27.7979C152.841 27.9118 152.784 28.5385 152.841 29.1082C152.784 29.9058 152.841 30.7603 152.327 31.5009Z" fill="#EE7444"/>
<path d="M148.096 36.6283C148.725 37.4828 148.267 38.2234 147.696 38.8501C147.41 39.1919 146.895 39.7047 146.552 39.6477C145.866 39.5338 146.038 38.7931 145.98 38.2804C145.923 36.6852 146.609 36.1725 148.096 36.6283Z" fill="#F8AB28"/>
<path d="M146.438 45.4017C146.266 45.5156 146.095 45.6296 145.923 45.7435C145.466 46.0853 145.009 46.5411 144.494 45.9714C144.322 45.8005 144.322 45.2878 144.494 45.0029C144.78 44.3762 145.352 44.4332 145.923 44.5471C146.324 44.6611 146.381 45.0599 146.438 45.4017Z" fill="#EB9121"/>
<path d="M158.273 32.2415C158.158 32.7543 158.273 33.4379 157.529 33.267C156.958 33.1531 157.015 32.5264 157.015 32.0137C157.015 31.5579 157.072 31.1021 157.644 31.1021C158.33 31.2161 158.158 31.8428 158.273 32.2415Z" fill="#D36F3C"/>
<path d="M148.096 36.6283C146.838 36.4574 146.266 37.141 146.038 38.2804C145.466 38.0525 145.18 37.6537 145.18 37.0271C146.209 37.141 146.952 35.261 148.096 36.6283Z" fill="#C93E2B"/>
<path d="M141.75 33.21C142.15 32.1846 140.663 29.9627 143.465 30.3046C143.465 30.9882 143.579 31.7288 143.408 32.3555C143.179 32.9822 142.836 34.0076 141.75 33.21Z" fill="#F6AC1F"/>
<path d="M198.408 33.1531C198.008 33.267 197.55 33.267 197.264 33.4949C195.206 35.0901 193.262 34.6343 192.347 32.2985C192.176 31.8427 191.833 31.5009 191.604 31.0452C193.948 31.5009 196.235 32.1846 198.408 33.1531Z" fill="#76873D"/>
<path d="M212.244 30.2476C210.128 30.4185 208.013 30.1336 205.84 30.5894C203.553 31.1021 201.724 29.7918 200.123 28.1967C199.894 27.9688 199.608 27.513 199.666 27.2851C200.523 24.5506 198.808 22.2717 198.293 19.765C198.865 18.8535 199.323 19.3663 199.723 19.879C201.381 22.1008 203.496 23.5251 206.069 24.4366C206.698 24.6645 207.384 25.0063 207.613 25.7469C207.67 25.8609 207.727 26.1457 207.727 26.1457C210.586 25.633 209.842 29.45 212.072 29.7349C212.301 29.7349 212.358 30.0767 212.244 30.2476Z" fill="#168349"/>
<path d="M212.244 30.2476C211.043 29.0512 208.527 28.9373 209.385 26.0888C207.841 27.2851 207.841 27.2851 207.27 25.69C207.212 25.4621 206.869 25.2912 206.641 25.2342C203.496 24.1518 200.752 22.4996 198.922 19.6511C198.865 19.5941 198.522 19.7081 198.351 19.765C198.236 19.6511 198.065 19.4802 197.95 19.3663C199.094 19.0244 200.009 18.1129 201.266 18.0559C202.639 20.2778 204.811 21.5311 206.927 22.8984C208.356 23.8099 209.442 25.3481 210.814 25.9178C212.873 26.7724 214.073 28.6524 216.074 29.45C216.074 30.1336 216.417 30.9312 215.731 31.387C214.988 31.7858 214.245 31.5009 213.616 30.9882C213.158 30.6464 212.701 30.4755 212.244 30.2476Z" fill="#2F9648"/>
<path d="M185.315 30.6464C184 29.6779 182.514 28.9942 181.428 27.7979C182.685 27.513 183.543 28.8233 184.801 28.5954C185.315 29.2221 185.315 29.9058 185.315 30.6464Z" fill="#6B7C42"/>
<path d="M57.8773 20.2208C57.0769 23.639 54.1039 24.1518 51.4168 25.0633C49.5301 25.69 49.5873 24.3227 49.3586 23.1263C51.3025 16.6886 55.8763 12.5298 61.4792 9.28251C63.5374 8.1431 65.5957 6.94672 68.6258 6.14914C64.2807 10.7637 60.5645 15.0935 57.8773 20.2208Z" fill="#579F47"/>
<path d="M74.6861 15.1505C74.6289 15.6632 74.9148 16.4038 74.2859 16.6887C71.3701 17.885 69.4834 20.3917 66.9106 22.0439C64.3379 23.696 61.6507 24.5506 58.6206 24.4366C57.2485 24.3796 56.7339 24.0378 57.5915 22.7845C57.9917 22.2717 58.2776 21.759 58.2204 21.0754C60.0499 18.1699 61.7079 15.1505 64.1092 12.6438C65.0811 13.8971 64.052 15.1505 64.052 16.6317C65.367 16.2899 66.3961 15.4353 67.5967 14.9226C69.0832 14.2959 70.684 14.125 72.2849 13.8971C73.3711 13.7262 74.2287 14.125 74.6861 15.1505Z" fill="#629043"/>
<path d="M74.6861 15.1505C72.7423 13.4413 70.684 14.6377 68.7402 15.0935C67.4252 15.4353 65.9387 15.8911 64.9096 17.0874C64.5094 17.5432 64.052 17.7711 63.4803 17.2584C63.0229 16.8596 63.0229 16.5177 63.4231 16.005C64.1664 14.9795 64.1092 13.7832 64.1092 12.6438C66.9678 9.33948 69.8265 6.0352 74.629 5.4655C76.4013 5.97823 75.4294 7.91522 76.3441 8.88371C76.3441 9.16857 76.4013 9.45342 76.4013 9.73827C76.0583 10.251 76.1154 10.7068 76.2298 11.3334C76.3441 12.3019 77.0302 13.6123 75.0863 13.7832C74.4574 13.7832 74.8005 14.6377 74.6861 15.1505Z" fill="#559F46"/>
<path d="M144.78 22.7275C145.237 23.2972 145.695 23.8669 146.209 24.4936C145.352 25.2342 144.665 24.2657 143.922 24.4366C143.808 24.3796 143.751 24.3796 143.636 24.3796C142.036 23.4681 140.721 22.2148 139.348 21.0184C138.491 21.0184 138.376 19.9929 137.69 19.7081C137.119 18.4547 136.547 17.8281 135.804 19.5941C135.575 20.0499 135.289 20.5057 135.003 20.9614C133.631 22.3287 132.03 23.3542 130.372 24.2657C129.686 24.4366 128.829 24.0378 128.257 24.7215C126.256 24.8924 124.769 24.3227 123.111 22.9554C121.511 21.702 119.967 20.6196 118.995 18.7966C118.823 18.2838 119.052 17.885 119.509 17.6571C120.596 17.0305 120.996 15.4923 122.597 15.4353C125.398 13.6692 127.8 15.2644 130.201 16.4608C131.573 17.1444 132.831 17.999 134.775 17.6571C133.002 16.4608 131.287 16.1189 129.629 15.6632C128.6 15.3783 127.571 15.2074 126.885 14.2959C126.828 13.2704 125.284 13.0995 125.455 11.9601C125.97 11.5613 126.599 11.5613 127.228 11.5613C128.886 11.7322 129.972 13.0995 131.744 13.3844C130.715 12.245 129.458 11.7322 128.314 11.1056C127.685 10.7068 126.656 10.6498 126.656 9.56736C126.256 8.88372 126.256 8.20007 126.485 7.40249C126.942 5.86429 127.456 5.52247 129 6.49096C131.173 7.85825 132.831 9.6813 134.603 11.4474C135.346 12.188 135.232 13.0995 134.946 13.9541C134.775 14.4668 133.402 14.6377 134.374 15.4923C135.118 16.1189 136.09 16.1189 136.89 15.6062C137.405 15.2644 138.033 14.9795 138.091 14.2389C139.691 13.2704 141.292 13.6692 142.779 13.9541C141.521 13.1565 139.634 14.068 138.205 13.0425C138.148 11.9601 139.177 11.8462 139.749 11.3334C142.15 11.0486 144.494 10.7068 146.895 10.9346C147.524 11.5613 149.068 11.1625 149.068 12.188C149.125 13.3274 149.068 14.4098 149.182 15.5492C149.239 16.1759 148.039 16.3468 147.238 16.3468C146.609 16.9735 145.809 16.7456 145.066 16.6886C144.322 16.6317 143.579 16.2329 142.893 16.8026C142.664 18.2838 142.264 18.5117 139.691 18.5687C140.32 20.2208 141.807 20.7335 143.007 21.5311C143.579 21.9869 144.38 22.0439 144.78 22.7275Z" fill="#099035"/>
<path d="M135.461 8.42795C135.975 6.37702 136.433 4.26912 138.548 3.07274C138.948 2.84486 139.52 2.56001 139.92 2.67395C140.892 2.9588 142.321 2.9588 142.493 4.15518C142.664 5.40852 141.349 5.92126 140.378 6.09217C138.72 6.37702 138.319 7.23158 138.434 8.65583C138.491 9.6813 138.033 10.6498 137.062 10.5359C136.204 10.4789 135.06 9.85221 135.461 8.42795Z" fill="#6E7D21"/>
<path d="M126.599 9.6813C128.371 10.7637 130.201 11.8462 131.973 12.8716C132.373 13.0995 132.945 13.3844 132.716 13.9541C132.488 14.4668 131.802 14.2959 131.401 14.125C130.086 13.4983 128.829 12.8147 127.514 12.131C125.57 11.6183 123.855 10.4789 121.911 9.85221C120.138 9.22553 118.08 9.45342 116.136 8.20007C117.451 7.63037 118.423 7.80128 119.452 7.91522C120.138 7.97219 120.824 7.97219 121.511 8.02916C123.169 8.59886 124.884 9.11159 126.599 9.6813Z" fill="#A4C561"/>
<path d="M138.148 13.0995C140.035 12.8716 141.864 12.9856 144.037 14.2959C141.693 14.2959 139.92 14.2959 138.091 14.2959C138.091 13.8971 138.148 13.4983 138.148 13.0995Z" fill="#84C569"/>
<path d="M156.214 25.1772C154.213 23.4111 152.155 21.702 150.154 19.936C149.297 19.1953 148.439 18.5117 147.238 18.5117C146.495 18.1699 145.466 18.4547 145.066 17.4862C145.523 16.3468 146.438 16.5747 147.295 16.8596C147.696 16.9735 148.153 17.1444 148.553 17.2584C148.782 17.8281 149.354 17.6002 149.754 17.7711C152.441 19.4802 155.128 21.2463 156.843 24.0948C157.072 24.4936 157.644 24.8354 157.015 25.2912C156.729 25.2342 156.5 25.1772 156.214 25.1772Z" fill="#C2393D"/>
<path d="M147.295 16.8026C146.609 17.0305 145.637 16.5747 145.237 17.6002C143.751 18.7396 143.065 16.5177 141.807 16.8026C142.379 15.2074 143.694 16.062 144.608 16.062C145.466 16.062 146.323 16.4608 147.238 16.4038C147.295 16.5747 147.295 16.6886 147.295 16.8026Z" fill="#576B35"/>
<path d="M119.395 7.91522C118.595 7.97219 117.737 8.02916 116.937 8.08613C120.71 8.82674 124.426 9.56736 127.456 12.131C126.77 12.188 126.084 12.245 125.398 12.3589C124.655 12.9286 123.797 12.8716 122.997 12.8147C119.567 12.5868 116.193 12.131 113.106 10.5928C110.991 10.308 108.99 9.39645 106.76 9.51039C110.934 8.1431 115.05 7.23157 119.395 7.91522Z" fill="#6BB01D"/>
<path d="M113.106 10.5928C117.165 11.3904 121.168 12.4159 125.398 12.3589C126.427 12.6438 127.342 12.9856 127.056 14.2959C125.741 15.1504 124.312 14.6377 122.997 14.6947C120.253 13.9541 117.337 14.2389 114.821 12.5868C115.107 11.2195 113.392 11.5043 113.106 10.5928Z" fill="#15742E"/>
<path d="M122.94 14.6947C124.255 14.068 125.627 14.2389 126.999 14.2959C129.458 15.0935 131.916 15.8911 134.317 16.7456C134.832 16.9165 135.632 17.0874 135.518 17.6571C135.461 18.3408 134.66 18.3978 134.031 18.4547C132.716 18.5687 131.516 18.1699 130.487 17.4293C128.085 15.6632 125.455 14.8656 122.482 15.4923C122.654 15.2074 122.826 14.9795 122.94 14.6947Z" fill="#9ECE54"/>
<path d="M119.452 17.7141C119.281 18.1129 119.109 18.5117 118.938 18.8535C118.823 18.8535 118.709 18.8535 118.595 18.9675C118.309 19.0814 118.08 19.1953 117.794 19.3093C117.165 19.1953 116.251 19.765 116.136 18.5117C117.051 17.5432 117.737 15.6632 119.452 17.7141Z" fill="#EAAF17"/>
<path d="M110.533 16.2899C110.362 17.0305 109.733 17.3153 109.047 17.4862C108.704 17.6002 108.475 17.3153 108.532 16.9735C108.647 16.2329 109.161 15.7202 109.904 15.5492C110.305 15.5492 110.533 15.8341 110.533 16.2899Z" fill="#F44B25"/>
<path d="M143.865 24.4366C144.494 25.8039 146.381 25.1772 147.067 26.4306C146.266 26.3736 145.98 26.9433 145.923 27.7979C145.237 26.6015 144.551 25.7469 143.293 25.4621C142.779 25.3481 142.664 24.7784 142.664 24.2657C143.122 24.0378 143.522 24.0948 143.865 24.4366Z" fill="#C93E2B"/>
<path d="M143.865 24.4366C143.465 24.3796 143.065 24.3227 142.664 24.2657C141.407 23.2972 140.092 22.4427 139.291 21.0184C140.949 21.9869 142.607 23.0124 143.865 24.4366Z" fill="#15692A"/>
<path d="M130.372 24.3227C131.916 23.1833 133.117 21.6451 135.003 21.0184C135.003 22.6705 133.345 22.6136 132.488 23.4681C132.145 23.8099 131.459 23.8669 131.173 24.4366C130.944 24.3796 130.658 24.3796 130.372 24.3227Z" fill="#556C33"/>
<path d="M181.027 43.2938C181.027 47.3387 176.911 51.0418 172.451 51.3266C166.105 51.7824 161.531 46.3702 161.589 40.2174C161.646 37.7677 163.59 36.7992 165.076 35.6028C168.392 32.9822 172.223 32.6403 175.939 34.4064C179.598 36.1155 181.199 39.4198 181.027 43.2938Z" fill="#B5D661"/>
<path d="M141.807 16.8026C143.122 16.3468 143.979 17.942 145.237 17.6002C146.038 17.6571 146.895 17.5432 147.295 18.4547C147.696 19.3093 148.668 19.7081 149.125 20.6196C149.411 21.2463 149.297 21.6451 149.011 22.1578C148.782 22.5566 148.382 22.7845 147.982 22.5566C146.838 21.8729 145.866 22.7845 144.78 22.7275C142.493 22.1578 140.492 21.1893 139.234 19.0814C139.005 18.6826 138.72 18.3408 139.12 17.942C139.291 17.7711 139.749 17.7141 139.863 17.7711C140.949 18.7396 141.807 17.7141 142.779 17.5432C142.379 17.3153 142.093 17.0874 141.807 16.8026Z" fill="#29912B"/>
<path d="M170.622 36.5713C174.853 36.6283 178.054 39.2489 178.054 42.6101C178.054 45.4017 174.624 48.5351 171.594 48.3072C167.706 48.0223 165.076 45.8005 165.19 41.9835C165.305 39.1919 167.02 36.2864 170.622 36.5713Z" fill="#BFDF71"/>
<path d="M42.7837 111.772H41.1257C41.1829 110.462 41.1829 109.322 41.1829 108.411H38.2099C38.2099 109.265 38.2099 110.405 38.2671 111.772H36.6091C36.6663 110.462 36.6663 109.151 36.6663 107.784C36.6663 106.417 36.6663 105.164 36.6091 104.138H38.2671C38.2099 105.221 38.2099 106.246 38.2099 107.214H41.2401C41.2401 106.36 41.2401 105.391 41.1829 104.138H42.8409C42.7837 105.164 42.7837 106.36 42.7837 107.784C42.6694 109.265 42.7266 110.576 42.7837 111.772Z" fill="#242424"/>
<path d="M53.8753 107.784C53.8753 108.981 53.5322 110.006 52.789 110.804C52.0457 111.601 51.131 112 50.0447 112C49.0156 112 48.158 111.658 47.4147 110.918C46.7287 110.177 46.3856 109.265 46.3856 108.126C46.3856 106.93 46.7287 105.904 47.4719 105.107C48.2152 104.309 49.1299 103.91 50.2162 103.91C51.2453 103.91 52.1029 104.252 52.8461 104.993C53.5894 105.733 53.8753 106.645 53.8753 107.784ZM52.2173 107.955C52.2173 107.158 51.9886 106.474 51.5884 105.961C51.1881 105.448 50.6736 105.221 50.0447 105.221C49.473 105.221 48.9584 105.505 48.5582 106.018C48.158 106.531 47.9293 107.158 47.9293 107.955C47.9293 108.753 48.158 109.436 48.5582 109.949C48.9584 110.462 49.473 110.69 50.1019 110.69C50.6736 110.69 51.1881 110.405 51.5884 109.892C52.0457 109.379 52.2173 108.753 52.2173 107.955Z" fill="#242424"/>
<path d="M63.7089 111.772H61.9366C61.4792 110.405 61.1362 109.55 60.9075 109.208C60.6788 108.867 60.2786 108.696 59.7069 108.696C59.4782 108.696 59.2495 108.696 59.078 108.696C59.078 109.721 59.078 110.747 59.1351 111.772H57.4771C57.5343 110.576 57.5343 109.265 57.5343 107.784C57.5343 106.36 57.5343 105.164 57.4771 104.138H58.5062C58.6206 104.138 58.8493 104.138 59.2495 104.138C59.6497 104.138 59.9927 104.138 60.2786 104.138C62.1081 104.138 62.9657 104.765 62.9657 105.961C62.9657 106.93 62.4511 107.613 61.422 108.012V108.126C61.8222 108.24 62.1653 108.525 62.4511 109.038C62.737 109.55 63.1944 110.405 63.7089 111.772ZM61.4792 106.36C61.4792 105.562 60.9647 105.164 59.9927 105.164C59.6497 105.164 59.3067 105.164 59.0208 105.221C59.078 105.847 59.078 106.645 59.078 107.613C59.3067 107.613 59.4782 107.613 59.6497 107.613C60.8503 107.613 61.4792 107.214 61.4792 106.36Z" fill="#242424"/>
<path d="M72.342 104.081L72.2849 105.334C71.4844 105.278 70.7412 105.221 70.0551 105.221C70.0551 105.961 70.0551 106.816 70.0551 107.727C70.0551 109.151 70.0551 110.462 70.1123 111.715H68.4543C68.5115 110.462 68.5115 109.151 68.5115 107.727C68.5115 106.816 68.5115 106.018 68.5115 105.221C67.9397 105.221 67.1965 105.278 66.2245 105.334L66.2817 104.081H72.342Z" fill="#242424"/>
<path d="M77.2589 111.772H75.6009C75.658 110.576 75.658 109.208 75.658 107.784C75.658 106.36 75.658 105.107 75.6009 104.138H77.2589C77.2017 105.107 77.2017 106.36 77.2017 107.784C77.2017 109.208 77.2017 110.576 77.2589 111.772Z" fill="#242424"/>
<path d="M92.524 104.081L92.4668 105.391C91.209 105.334 90.1227 105.278 89.1508 105.278C89.208 105.961 89.208 106.702 89.208 107.499C89.9512 107.499 90.8088 107.499 91.7807 107.442V108.639C90.8088 108.582 89.9512 108.582 89.208 108.582C89.208 109.721 89.208 110.747 89.2651 111.715H87.6071C87.6643 110.519 87.6643 109.208 87.6643 107.727C87.6643 106.303 87.6643 105.107 87.6071 104.081H92.524Z" fill="#242424"/>
<path d="M102.072 111.772H100.299C99.8421 110.405 99.499 109.55 99.2704 109.208C99.0417 108.867 98.6415 108.696 98.0697 108.696C97.841 108.696 97.6123 108.696 97.4408 108.696C97.4408 109.721 97.4408 110.747 97.498 111.772H95.84C95.8972 110.576 95.8972 109.265 95.8972 107.784C95.8972 106.36 95.8972 105.164 95.84 104.138H96.8691C96.9835 104.138 97.2121 104.138 97.6124 104.138C98.0126 104.138 98.3556 104.138 98.6415 104.138C100.471 104.138 101.329 104.765 101.329 105.961C101.329 106.93 100.814 107.613 99.7849 108.012V108.126C100.185 108.24 100.528 108.525 100.814 109.038C101.157 109.493 101.557 110.405 102.072 111.772ZM99.8421 106.36C99.8421 105.562 99.3275 105.164 98.3556 105.164C98.0126 105.164 97.6695 105.164 97.3837 105.221C97.4408 105.847 97.4408 106.645 97.4408 107.613C97.6695 107.613 97.841 107.613 98.0126 107.613C99.2132 107.613 99.8421 107.215 99.8421 106.36Z" fill="#242424"/>
<path d="M111.734 104.081C111.677 105.391 111.677 106.702 111.677 108.012C111.677 110.633 110.591 111.943 108.475 111.943C107.389 111.943 106.588 111.658 106.074 111.088C105.559 110.519 105.274 109.493 105.274 107.955C105.274 106.645 105.274 105.334 105.216 104.081H106.874C106.817 105.391 106.817 106.702 106.817 107.898C106.817 108.981 106.932 109.721 107.217 110.12C107.503 110.519 107.903 110.747 108.475 110.747C109.104 110.747 109.504 110.576 109.79 110.177C110.076 109.778 110.19 109.038 110.19 107.955C110.19 106.759 110.19 105.505 110.133 104.138L111.734 104.081Z" fill="#242424"/>
<path d="M120.939 104.081L120.882 105.334C120.081 105.278 119.338 105.221 118.652 105.221C118.652 105.961 118.652 106.816 118.652 107.727C118.652 109.152 118.652 110.462 118.709 111.715H117.051C117.108 110.462 117.108 109.152 117.108 107.727C117.108 106.816 117.108 106.018 117.108 105.221C116.536 105.221 115.793 105.278 114.821 105.334L114.878 104.081H120.939Z" fill="#242424"/>
<path d="M125.856 111.772H124.198C124.255 110.576 124.255 109.208 124.255 107.784C124.255 106.36 124.255 105.107 124.198 104.138H125.856C125.798 105.107 125.798 106.36 125.798 107.784C125.798 109.208 125.798 110.576 125.856 111.772Z" fill="#242424"/>
<defs>
<linearGradient id="paint0_linear" x1="37.1828" y1="99.3214" x2="37.1828" y2="34.7886" gradientUnits="userSpaceOnUse">
<stop stop-color="#00884E"/>
<stop offset="1" stop-color="#173527"/>
</linearGradient>
<linearGradient id="paint1_linear" x1="101.586" y1="70.0015" x2="101.586" y2="57.5078" gradientUnits="userSpaceOnUse">
<stop stop-color="#00884E"/>
<stop offset="1" stop-color="#173527"/>
</linearGradient>
<linearGradient id="paint2_linear" x1="102.831" y1="99.7882" x2="102.831" y2="46.7006" gradientUnits="userSpaceOnUse">
<stop stop-color="#00884E"/>
<stop offset="1" stop-color="#173527"/>
</linearGradient>
</defs>
</svg>
